<?xml version="1.0" standalone="no"?>
<!DOCTYPE svg PUBLIC "-//W3C//DTD SVG 20010904//EN"
 "http://www.w3.org/TR/2001/REC-SVG-20010904/DTD/svg10.dtd">
<svg version="1.0" xmlns="http://www.w3.org/2000/svg"
 width="960.000000pt" height="960.000000pt" viewBox="0 0 960.000000 960.000000"
 preserveAspectRatio="xMidYMid meet">

<g transform="translate(0.000000,960.000000) scale(0.100000,-0.100000)"
fill="#000000" stroke="none">
<path d="M4377 9584 c-790 -66 -1572 -341 -2242 -787 -522 -348 -986 -812
-1331 -1332 -423 -636 -683 -1340 -776 -2105 -19 -161 -22 -233 -22 -560 0
-327 3 -398 22 -560 161 -1318 831 -2483 1889 -3282 385 -291 880 -553 1338
-708 263 -89 658 -181 925 -214 403 -51 966 -45 1346 14 336 52 730 159 1049
285 158 62 530 245 677 333 1190 713 2006 1876 2267 3232 109 566 109 1234 0
1800 -261 1357 -1076 2518 -2269 3233 -144 86 -518 271 -670 330 -349 137
-728 239 -1086 292 -298 44 -790 57 -1117 29z m-922 -2080 c595 -85 1104 -481
1273 -990 54 -163 63 -232 72 -579 7 -301 9 -326 34 -419 101 -375 345 -662
723 -850 127 -63 255 -106 413 -138 96 -19 146 -23 305 -22 168 0 205 3 319
27 292 62 536 194 750 404 190 187 308 375 387 615 46 142 60 220 66 381 l6
147 64 0 63 0 0 -122 c0 -589 -382 -1168 -945 -1434 -458 -216 -1028 -207
-1490 24 -326 162 -556 389 -701 690 -84 176 -122 347 -124 577 -6 429 -23
560 -99 735 -175 407 -537 689 -1037 806 -111 27 -134 28 -334 29 -171 0 -232
-4 -298 -18 -335 -74 -563 -196 -792 -426 -287 -288 -441 -640 -442 -1003 l0
-128 -63 0 c-73 0 -75 2 -75 110 -1 404 194 840 509 1143 378 363 877 518
1416 441z m2663 -696 l-3 -253 -157 -3 -158 -3 0 256 0 255 160 0 160 0 -2
-252z m702 -3 l0 -255 -150 0 -150 0 0 255 0 255 150 0 150 0 0 -255z m-712
-2911 c12 -8 22 -22 22 -31 0 -23 -169 -203 -191 -203 -10 0 -26 11 -35 25
-16 24 -15 26 42 98 53 66 117 127 133 127 4 0 17 -7 29 -16z m-3989 -58 c15
-8 40 -31 55 -51 54 -70 113 -66 142 11 14 38 21 44 45 44 41 0 46 -30 15 -95
-33 -66 -45 -76 -100 -82 -64 -8 -109 11 -151 63 -44 53 -83 60 -112 19 -45
-64 -49 -68 -70 -61 -28 9 -35 30 -22 64 31 81 128 124 198 88z m-533 -24 c6
-4 17 -18 24 -31 10 -20 9 -27 -7 -50 -11 -14 -30 -27 -42 -29 -49 -8 -82 66
-45 102 16 17 51 21 70 8z m-769 -210 c16 -10 33 -57 33 -89 0 -25 1 -25 45
16 69 64 139 80 202 48 52 -27 65 -73 75 -252 4 -88 11 -190 14 -226 5 -53 3
-69 -11 -82 -23 -24 -52 -21 -69 6 -18 30 -36 179 -36 310 0 58 -5 118 -10
133 -9 24 -14 26 -47 21 -50 -9 -97 -57 -140 -145 -34 -70 -35 -78 -35 -185 0
-62 -4 -118 -10 -124 -14 -17 -63 -16 -77 1 -16 19 -18 155 -7 376 7 140 12
178 24 188 18 14 32 15 49 4z m1177 -5 c12 -9 20 -31 24 -65 l4 -52 21 26 c41
53 96 84 148 84 115 0 139 -42 150 -260 5 -85 12 -189 15 -231 6 -73 5 -78
-16 -89 -28 -15 -67 -5 -74 18 -14 46 -26 185 -26 292 0 65 -4 130 -10 144
-25 67 -133 0 -184 -115 -33 -73 -47 -160 -39 -245 5 -59 4 -63 -21 -79 -24
-16 -28 -16 -49 -2 -33 21 -39 96 -26 290 5 83 7 175 3 203 -5 45 -3 55 15 73
24 24 40 26 65 8z m4500 0 c11 -8 20 -31 23 -61 l6 -47 31 29 c68 63 86 72
145 72 110 0 130 -37 144 -270 5 -91 10 -196 11 -235 1 -67 0 -70 -26 -79 -48
-17 -63 8 -76 132 -7 59 -12 153 -12 210 0 111 -9 142 -41 142 -51 0 -113 -56
-149 -136 -38 -83 -42 -99 -42 -204 0 -58 -4 -111 -10 -117 -14 -18 -63 -16
-78 2 -10 12 -11 75 -6 283 7 228 10 269 24 280 20 15 34 15 56 -1z m-1134
-35 c71 -34 89 -86 39 -113 -17 -9 -28 -6 -57 15 -105 71 -188 26 -243 -130
-37 -103 -14 -179 64 -215 59 -26 94 -24 167 13 65 32 81 31 104 -4 27 -43
-76 -110 -179 -116 -84 -6 -139 12 -190 59 -60 55 -79 109 -73 204 4 56 12 90
36 137 37 76 90 139 134 162 45 23 139 17 198 -12z m2087 13 c95 -28 132 -85
78 -121 -18 -12 -25 -11 -55 10 -50 34 -113 43 -148 20 -37 -24 -48 -39 -85
-114 -38 -78 -43 -159 -14 -204 21 -32 88 -65 131 -66 16 0 60 14 98 32 66 30
69 30 88 13 41 -37 11 -81 -79 -115 -96 -37 -200 -23 -270 36 -55 46 -76 98
-76 189 0 69 5 89 33 149 78 166 159 213 299 171z m1499 -9 c24 -20 28 -32 32
-90 5 -77 -13 -116 -53 -116 -31 0 -45 26 -45 85 l0 47 -37 -7 c-55 -10 -116
-48 -146 -92 -27 -38 -27 -42 -27 -201 0 -160 0 -162 -24 -177 -19 -13 -29
-14 -45 -6 -19 11 -20 22 -23 224 -4 262 1 326 25 341 23 15 49 -2 62 -40 5
-16 10 -30 11 -32 1 -2 22 11 47 29 45 32 118 57 169 58 15 1 39 -10 54 -23z
m-6009 -5 c105 -48 154 -246 97 -392 -77 -197 -309 -216 -407 -34 -18 33 -22
57 -22 141 0 92 2 105 30 159 63 122 192 176 302 126z m922 -40 c22 -32 68
-115 102 -182 l62 -124 23 50 c95 209 145 306 159 311 8 3 26 3 40 0 48 -12
42 -40 -60 -262 -144 -309 -165 -359 -204 -468 -42 -115 -64 -134 -106 -92
-24 24 -24 25 -9 78 9 29 36 100 60 157 26 62 40 109 35 115 -5 6 -32 58 -61
116 -30 58 -76 145 -103 195 -53 96 -60 131 -31 152 33 24 52 15 93 -46z
m2225 30 c47 -29 59 -52 46 -86 -5 -14 -10 -82 -10 -150 0 -109 3 -133 25
-192 31 -81 27 -113 -12 -113 -15 0 -39 11 -53 25 l-27 26 -49 -21 c-140 -61
-273 -15 -315 107 -21 62 -17 199 8 254 29 64 85 123 146 154 46 23 61 26 128
22 56 -2 85 -9 113 -26z m2103 9 c81 -36 106 -128 51 -187 -13 -14 -92 -58
-175 -99 -84 -40 -153 -77 -153 -82 0 -11 50 -57 77 -71 31 -16 133 -14 184 4
24 9 56 27 71 42 20 19 33 24 52 19 22 -5 26 -12 26 -40 0 -69 -113 -126 -250
-126 -92 0 -140 14 -189 56 -54 46 -74 101 -73 194 1 127 61 243 151 290 50
27 170 27 228 0z m-6617 0 c13 -8 14 -45 11 -252 -2 -145 -7 -248 -13 -255
-17 -22 -66 -16 -79 9 -16 30 -6 473 11 494 14 16 48 18 70 4z m140 -940 c12
-6 20 -19 18 -28 -3 -15 -18 -17 -113 -17 l-110 0 -3 -49 c-5 -70 0 -76 45
-66 21 5 63 6 93 2 46 -6 55 -10 55 -27 0 -17 -7 -20 -45 -22 -25 -2 -69 -5
-97 -9 l-53 -5 0 -103 c0 -81 -3 -106 -15 -116 -33 -27 -38 2 -36 222 1 117 5
216 9 220 20 19 215 18 252 -2z m2359 -69 c100 -72 135 -173 92 -266 -21 -46
-54 -79 -94 -94 -41 -16 -131 -13 -176 5 l-39 16 0 196 c0 249 -3 244 110 196
44 -19 92 -43 107 -53z m-972 -5 c65 -95 210 -266 226 -266 12 0 2 238 -12
286 -10 34 1 64 24 64 31 0 40 -43 43 -226 3 -158 2 -183 -13 -197 -12 -12
-21 -14 -34 -8 -28 15 -151 150 -216 236 l-60 80 -7 -40 c-4 -22 -5 -85 -2
-140 6 -111 -4 -159 -34 -153 -15 3 -17 24 -22 211 -3 115 -1 215 3 223 18 32
46 13 104 -70z m2641 72 c7 -7 12 -29 12 -50 0 -48 -25 -62 -51 -30 -29 36
-72 29 -118 -20 -76 -79 -104 -187 -62 -239 27 -34 86 -32 139 4 47 30 67 34
75 12 14 -35 -81 -95 -152 -95 -89 0 -150 76 -136 170 10 66 36 118 89 177 49
54 99 79 142 70 13 -2 27 0 30 4 7 12 18 11 32 -3z m2129 -91 c80 -112 207
-256 218 -245 7 7 -10 264 -21 309 -4 20 -1 28 12 33 43 16 64 -63 64 -238 0
-179 -13 -214 -63 -181 -26 17 -160 169 -218 247 -22 29 -44 55 -49 56 -6 2
-10 -55 -10 -146 0 -83 -3 -157 -6 -166 -7 -18 -30 -21 -39 -7 -8 14 -10 415
-1 429 17 28 44 7 113 -91z m-5636 -48 c7 -152 21 -199 68 -223 45 -24 79 -20
111 12 37 38 51 92 59 232 6 106 8 115 26 115 18 0 20 -8 23 -100 6 -174 -31
-278 -109 -309 -81 -33 -164 -2 -200 71 -20 40 -24 68 -27 174 -3 85 0 133 8
148 24 47 35 17 41 -120z m4147 132 c63 -9 81 -23 62 -46 -11 -13 -24 -15 -60
-10 -58 8 -57 11 -59 -164 l-2 -131 54 0 c41 0 56 -4 61 -16 10 -26 -3 -34
-57 -35 -29 0 -79 -4 -112 -9 -44 -5 -64 -4 -74 5 -24 23 -5 45 39 45 l40 0 0
155 0 155 -40 0 c-43 0 -70 26 -48 48 13 13 114 15 196 3z m831 -9 c60 -30 76
-62 76 -155 0 -96 -25 -156 -87 -212 -82 -74 -229 -54 -284 40 -29 48 -25 148
9 216 45 94 98 129 192 129 37 0 73 -7 94 -18z m-2315 -9 c2 -10 17 -76 31
-148 15 -71 33 -151 41 -177 16 -49 13 -68 -11 -68 -21 0 -43 38 -56 98 -10
48 -13 53 -33 48 -12 -3 -45 -10 -73 -16 -51 -11 -53 -13 -79 -71 -19 -42 -32
-59 -46 -59 -29 0 -32 24 -9 76 12 25 21 55 21 65 0 10 6 22 13 26 7 4 24 26
36 48 95 164 151 225 165 178z"/>
<path d="M2766 3440 c-41 -37 -66 -103 -66 -178 0 -121 101 -189 191 -129 50
33 69 79 69 164 0 123 -32 173 -111 173 -39 0 -55 -6 -83 -30z"/>
<path d="M5888 3470 c-119 -63 -156 -253 -67 -343 28 -27 34 -29 88 -25 37 3
68 11 88 26 l30 21 -4 162 c-2 117 -6 165 -15 171 -23 14 -82 8 -120 -12z"/>
<path d="M7993 3471 c-18 -11 -39 -31 -48 -45 -24 -37 -56 -126 -45 -126 15 0
191 84 244 117 l49 31 -28 18 c-42 27 -132 30 -172 5z"/>
<path d="M3909 2423 c-1 -76 -1 -145 1 -153 5 -40 84 -53 146 -24 33 16 74 81
74 117 0 29 -26 83 -51 106 -27 25 -113 75 -146 86 l-23 6 -1 -138z"/>
<path d="M7055 2556 c-83 -37 -131 -167 -93 -250 12 -28 80 -66 117 -66 50 0
109 49 136 112 17 43 20 140 4 170 -22 42 -107 59 -164 34z"/>
<path d="M4829 2474 c-14 -22 -32 -50 -39 -63 -12 -24 -12 -24 31 -17 24 4 47
10 51 14 4 4 2 29 -5 56 l-13 49 -25 -39z"/>
</g>
</svg>
